HIERARCHY
ROOT Hips
{
	OFFSET 0.000000 35.082581 0.000000
	CHANNELS 6 Xposition Yposition Zposition Xrotation Yrotation Zrotation 
	JOINT Spine
	{
		OFFSET 0.000000 6.876099 0.125700
		CHANNELS 3 Xrotation Yrotation Zrotation
		JOINT Spine1
		{
			OFFSET 0.000000 5.730043 0.104720
			CHANNELS 3 Xrotation Yrotation Zrotation
			JOINT Spine1_split
			{
				OFFSET 0.000000 5.730043 0.104720
				CHANNELS 3 Xrotation Yrotation Zrotation
				JOINT Spine2
				{
					OFFSET 0.000000 5.730043 0.104720
					CHANNELS 3 Xrotation Yrotation Zrotation
					JOINT Neck
					{
						OFFSET 0.000000 10.314075 0.188496
						CHANNELS 3 Xrotation Yrotation Zrotation
						JOINT Head
						{
							OFFSET 0.000000 7.643700 -2.377400
							CHANNELS 3 Xrotation Yrotation Zrotation
							JOINT HeadTop_End
							{
								OFFSET 0.000000 43.788605 -13.619600
								CHANNELS 3 Xrotation Yrotation Zrotation
								End Site
								{
									OFFSET 0.000000 0.000000 0.000000
								}
							}
						}
					}
					JOINT LeftShoulder
					{
						OFFSET 2.196100 4.412489 0.087492
						CHANNELS 3 Xrotation Yrotation Zrotation
						JOINT LeftShoulder_split
						{
							OFFSET 2.196100 4.412489 0.087492
							CHANNELS 3 Xrotation Yrotation Zrotation
							JOINT LeftArm
							{
								OFFSET 8.771219 -2.981674 -0.026999
								CHANNELS 3 Xrotation Yrotation Zrotation
								JOINT LeftForeArm
								{
									OFFSET 8.512804 0.000000 -0.000000
									CHANNELS 3 Xrotation Yrotation Zrotation
									JOINT LeftHand
									{
										OFFSET 18.484802 0.000000 -0.000000
										CHANNELS 3 Xrotation Yrotation Zrotation
										JOINT LeftHandThumb1
										{
											OFFSET 2.499420 -1.158070 2.653252
											CHANNELS 3 Xrotation Yrotation Zrotation
											JOINT LeftHandThumb2
											{
												OFFSET 2.370079 -1.368366 1.368366
												CHANNELS 3 Xrotation Yrotation Zrotation
												JOINT LeftHandThumb3
												{
													OFFSET 2.676727 -1.545410 1.545409
													CHANNELS 3 Xrotation Yrotation Zrotation
													JOINT LeftHandThumb4
													{
														OFFSET 1.692226 -0.977005 0.977007
														CHANNELS 3 Xrotation Yrotation Zrotation
														End Site
														{
															OFFSET 0.000000 0.000000 0.000000
														}
													}
												}
											}
										}
										JOINT LeftHandIndex1
										{
											OFFSET 7.924831 -0.457527 2.345128
											CHANNELS 3 Xrotation Yrotation Zrotation
											JOINT LeftHandIndex2
											{
												OFFSET 3.643303 0.000000 0.000000
												CHANNELS 3 Xrotation Yrotation Zrotation
												JOINT LeftHandIndex3
												{
													OFFSET 3.810799 0.000000 0.000000
													CHANNELS 3 Xrotation Yrotation Zrotation
													JOINT LeftHandIndex4
													{
														OFFSET 2.403702 0.000000 0.000000
														CHANNELS 3 Xrotation Yrotation Zrotation
														End Site
														{
															OFFSET 0.000000 0.000000 0.000000
														}
													}
												}
											}
										}
										JOINT LeftHandMiddle1
										{
											OFFSET 8.563995 0.000000 -0.000000
											CHANNELS 3 Xrotation Yrotation Zrotation
											JOINT LeftHandMiddle2
											{
												OFFSET 3.861618 0.000000 0.000000
												CHANNELS 3 Xrotation Yrotation Zrotation
												JOINT LeftHandMiddle3
												{
													OFFSET 3.701603 0.000000 0.000000
													CHANNELS 3 Xrotation Yrotation Zrotation
													JOINT LeftHandMiddle4
													{
														OFFSET 2.322544 0.000000 0.000000
														CHANNELS 3 Xrotation Yrotation Zrotation
														End Site
														{
															OFFSET 0.000000 0.000000 0.000000
														}
													}
												}
											}
										}
										JOINT LeftHandRing1
										{
											OFFSET 8.426460 -0.424637 -3.286992
											CHANNELS 3 Xrotation Yrotation Zrotation
											JOINT LeftHandRing2
											{
												OFFSET 3.126408 0.000000 0.000000
												CHANNELS 3 Xrotation Yrotation Zrotation
												JOINT LeftHandRing3
												{
													OFFSET 3.085026 0.000000 0.000000
													CHANNELS 3 Xrotation Yrotation Zrotation
													JOINT LeftHandRing4
													{
														OFFSET 1.644005 0.000000 0.000000
														CHANNELS 3 Xrotation Yrotation Zrotation
														End Site
														{
															OFFSET 0.000000 0.000000 0.000000
														}
													}
												}
											}
										}
									}
								}
							}
						}
					}
					JOINT RightShoulder
					{
						OFFSET -2.196100 4.412496 0.070690
						CHANNELS 3 Xrotation Yrotation Zrotation
						JOINT RightShoulder_split
						{
							OFFSET -2.196100 4.412496 0.070690
							CHANNELS 3 Xrotation Yrotation Zrotation
							JOINT RightArm
							{
								OFFSET -8.771282 -2.981682 -0.094208
								CHANNELS 3 Xrotation Yrotation Zrotation
								JOINT RightForeArm
								{
									OFFSET -8.494598 0.000000 0.000000
									CHANNELS 3 Xrotation Yrotation Zrotation
									JOINT RightHand
									{
										OFFSET -18.483803 0.000000 0.000001
										CHANNELS 3 Xrotation Yrotation Zrotation
										JOINT RightHandThumb1
										{
											OFFSET -2.527351 -1.008072 2.575253
											CHANNELS 3 Xrotation Yrotation Zrotation
											JOINT RightHandThumb2
											{
												OFFSET -2.321518 -1.340328 1.340329
												CHANNELS 3 Xrotation Yrotation Zrotation
												JOINT RightHandThumb3
												{
													OFFSET -2.657753 -1.534454 1.534455
													CHANNELS 3 Xrotation Yrotation Zrotation
													JOINT RightHandThumb4
													{
														OFFSET -1.807510 -1.043568 1.043567
														CHANNELS 3 Xrotation Yrotation Zrotation
														End Site
														{
															OFFSET 0.000000 0.000000 0.000000
														}
													}
												}
											}
										}
										JOINT RightHandIndex1
										{
											OFFSET -8.811420 0.015533 2.887987
											CHANNELS 3 Xrotation Yrotation Zrotation
											JOINT RightHandIndex2
											{
												OFFSET -3.537502 0.000000 0.000000
												CHANNELS 3 Xrotation Yrotation Zrotation
												JOINT RightHandIndex3
												{
													OFFSET -3.356201 0.000000 0.000000
													CHANNELS 3 Xrotation Yrotation Zrotation
													JOINT RightHandIndex4
													{
														OFFSET -1.933098 0.000000 0.000000
														CHANNELS 3 Xrotation Yrotation Zrotation
														End Site
														{
															OFFSET 0.000000 0.000000 0.000000
														}
													}
												}
											}
										}
										JOINT RightHandMiddle1
										{
											OFFSET -8.178135 0.000000 0.000000
											CHANNELS 3 Xrotation Yrotation Zrotation
											JOINT RightHandMiddle2
											{
												OFFSET -3.901302 0.000000 0.000000
												CHANNELS 3 Xrotation Yrotation Zrotation
												JOINT RightHandMiddle3
												{
													OFFSET -3.909599 0.000000 0.000000
													CHANNELS 3 Xrotation Yrotation Zrotation
													JOINT RightHandMiddle4
													{
														OFFSET -2.376003 0.000000 0.000000
														CHANNELS 3 Xrotation Yrotation Zrotation
														End Site
														{
															OFFSET 0.000000 0.000000 0.000000
														}
													}
												}
											}
										}
										JOINT RightHandRing1
										{
											OFFSET -7.559013 0.014137 -2.865403
											CHANNELS 3 Xrotation Yrotation Zrotation
											JOINT RightHandRing2
											{
												OFFSET -3.449306 0.000000 0.000000
												CHANNELS 3 Xrotation Yrotation Zrotation
												JOINT RightHandRing3
												{
													OFFSET -3.362106 0.000000 0.000000
													CHANNELS 3 Xrotation Yrotation Zrotation
													JOINT RightHandRing4
													{
														OFFSET -2.076401 0.000000 0.000000
														CHANNELS 3 Xrotation Yrotation Zrotation
														End Site
														{
															OFFSET 0.000000 0.000000 0.000000
														}
													}
												}
											}
										}
									}
								}
							}
						}
					}
				}
			}
		}
	}
	JOINT LeftUpLeg
	{
		OFFSET 10.205400 -3.823500 0.155100
		CHANNELS 3 Xrotation Yrotation Zrotation
		JOINT LeftLeg
		{
			OFFSET 0.708757 -12.982077 0.567790
			CHANNELS 3 Xrotation Yrotation Zrotation
			JOINT LeftFoot
			{
				OFFSET -0.708756 -10.717838 -2.184338
				CHANNELS 3 Xrotation Yrotation Zrotation
				JOINT LeftToeBase
				{
					OFFSET 0.108149 -7.191104 7.560241
					CHANNELS 3 Xrotation Yrotation Zrotation
					JOINT LeftToe_End
					{
						OFFSET 0.070230 0.081724 4.490308
						CHANNELS 3 Xrotation Yrotation Zrotation
						End Site
						{
							OFFSET 0.000000 0.000000 0.000000
						}
					}
				}
			}
		}
	}
	JOINT RightUpLeg
	{
		OFFSET -10.205400 -3.823500 0.005500
		CHANNELS 3 Xrotation Yrotation Zrotation
		JOINT RightLeg
		{
			OFFSET -0.708756 -12.982134 0.610632
			CHANNELS 3 Xrotation Yrotation Zrotation
			JOINT RightFoot
			{
				OFFSET 0.708754 -10.717769 -1.945823
				CHANNELS 3 Xrotation Yrotation Zrotation
				JOINT RightToeBase
				{
					OFFSET -0.108140 -7.191069 7.372968
					CHANNELS 3 Xrotation Yrotation Zrotation
					JOINT RightToe_End
					{
						OFFSET -0.070227 0.081735 4.479403
						CHANNELS 3 Xrotation Yrotation Zrotation
						End Site
						{
							OFFSET 0.000000 0.000000 0.000000
						}
					}
				}
			}
		}
	}
}
MOTION
Frames: 6
Frame Time: 0.016667
0.195171 32.390762 -0.167871 1.510679 -26.726902 0.697808 4.044274 -1.449655 0.709881 1.509780 -0.573494 0.095187 0.000000 0.000000 0.000000 1.512357 -0.565981 0.098704 -2.627947 4.190007 2.862241 16.708355 24.088491 -12.351907 0.000001 -0.000000 0.000000 -0.278008 3.012242 5.812593 0.000000 0.000000 0.000000 -51.694157 -1.278273 -53.239067 0.000053 -85.822051 0.000120 -13.673776 -20.175397 -8.459480 27.590969 19.106281 -21.055293 27.859539 42.153021 14.703686 8.091810 17.848642 9.739501 -0.000002 0.000001 -0.000002 6.438751 6.867039 -86.304617 7.312863 6.867712 -93.605291 2.157737 5.009660 -46.582969 -0.000000 0.000000 -0.000000 6.436806 6.866917 -86.288416 7.314808 6.867591 -93.621505 2.157739 5.009666 -46.582945 -0.000001 0.000001 -0.000000 6.438748 6.867054 -86.304631 7.312868 6.867707 -93.605291 2.157729 5.009663 -46.582949 0.000001 0.000001 -0.000001 -1.118787 -11.889986 10.257416 0.000000 0.000000 0.000000 -58.214713 66.009373 74.019948 -0.000067 83.646759 0.000083 -16.117238 15.251136 -32.686792 35.509604 -4.573187 10.809918 66.380819 -29.908019 29.548764 25.917436 -18.540866 10.281083 0.000001 0.000000 0.000006 5.945859 -6.875896 81.685340 8.620180 -6.745010 103.956565 2.650657 -5.464861 51.723817 0.000001 0.000002 -0.000000 5.945870 -6.875894 81.685347 8.620190 -6.745000 103.956572 2.650634 -5.464859 51.723814 0.000001 0.000000 0.000000 5.945863 -6.875888 81.685361 8.620190 -6.744995 103.956558 2.650632 -5.464854 51.723817 -0.000000 -0.000003 0.000000 -28.607023 23.958920 18.951215 38.503525 6.218609 10.942221 -11.873337 4.541551 -18.633214 -0.000039 0.000002 0.000001 -0.000000 -0.000002 0.000000 -16.304710 -15.586983 -13.173571 38.134831 0.116381 -7.169965 -22.800621 -5.135909 15.336066 -0.000054 0.000001 -0.000002 0.000000 0.000003 -0.000000 
0.193566 32.390156 -0.165615 1.526559 -26.726180 0.716141 4.031320 -1.455806 0.714446 1.504779 -0.576869 0.097091 0.000000 0.000000 0.000000 1.507365 -0.569383 0.100618 -2.626394 4.193303 2.853712 16.723305 24.085805 -12.361639 0.000001 -0.000000 0.000000 -0.279649 3.035682 5.768272 0.000000 0.000000 0.000000 -51.680900 -1.342419 -53.222869 -0.000130 -85.775865 -0.000162 -13.811746 -20.364110 -8.525112 27.590964 19.106276 -21.055289 27.859546 42.153021 14.703685 8.091810 17.848644 9.739500 -0.000001 -0.000002 -0.000004 6.438751 6.867045 -86.304624 7.312867 6.867712 -93.605291 2.157737 5.009659 -46.582966 0.000000 0.000001 0.000000 6.436807 6.866919 -86.288416 7.314807 6.867592 -93.621505 2.157738 5.009668 -46.582942 0.000002 -0.000000 0.000000 6.438747 6.867054 -86.304638 7.312866 6.867707 -93.605291 2.157727 5.009664 -46.582956 -0.000000 0.000000 0.000001 -1.120092 -11.901485 10.263979 0.000000 0.000000 0.000000 -58.262142 66.059513 74.030057 0.000003 83.625510 -0.000003 -16.127169 15.169010 -32.708837 35.509604 -4.573183 10.809922 66.380826 -29.908022 29.548764 25.917436 -18.540863 10.281088 -0.000000 -0.000002 -0.000000 5.945861 -6.875894 81.685340 8.620183 -6.745009 103.956565 2.650646 -5.464858 51.723820 0.000000 -0.000003 0.000001 5.945870 -6.875902 81.685340 8.620191 -6.745002 103.956572 2.650632 -5.464854 51.723814 -0.000001 -0.000003 0.000002 5.945862 -6.875888 81.685361 8.620190 -6.744998 103.956558 2.650638 -5.464856 51.723817 -0.000001 -0.000002 -0.000000 -28.613850 23.985604 18.945864 38.490708 6.198699 10.942048 -11.871548 4.539464 -18.625991 -0.000038 0.000004 -0.000001 -0.000000 -0.000000 0.000000 -16.353879 -15.661977 -13.187607 38.163651 0.184408 -7.236817 -22.817586 -5.140555 15.342835 -0.000049 0.000001 -0.000000 0.000000 -0.000004 0.000000 
0.192169 32.389305 -0.163192 1.543250 -26.722115 0.731444 4.018844 -1.462574 0.718760 1.499958 -0.580344 0.099077 0.000000 0.000000 0.000000 1.502555 -0.572885 0.102615 -2.623186 4.196170 2.846584 16.734051 24.083208 -12.365514 -0.000000 0.000000 0.000000 -0.280743 3.056232 5.722851 0.000000 0.000000 0.000000 -51.672819 -1.406315 -53.202847 0.000063 -85.730827 0.000086 -13.921670 -20.527416 -8.571529 27.590964 19.106276 -21.055294 27.859544 42.153018 14.703686 8.091809 17.848644 9.739501 -0.000001 0.000003 -0.000003 6.438750 6.867043 -86.304624 7.312864 6.867710 -93.605291 2.157738 5.009664 -46.582962 0.000000 -0.000001 -0.000000 6.436804 6.866921 -86.288430 7.314811 6.867591 -93.621512 2.157736 5.009665 -46.582945 0.000000 -0.000000 0.000000 6.438747 6.867053 -86.304645 7.312866 6.867709 -93.605297 2.157729 5.009665 -46.582956 -0.000000 -0.000000 -0.000000 -1.121295 -11.910754 10.267805 0.000000 0.000000 0.000000 -58.301047 66.100535 74.036122 -0.000012 83.610859 -0.000006 -16.139121 15.077340 -32.725567 35.509607 -4.573184 10.809917 66.380819 -29.908015 29.548768 25.917436 -18.540864 10.281085 0.000004 -0.000000 0.000001 5.945865 -6.875892 81.685340 8.620191 -6.745012 103.956565 2.650652 -5.464856 51.723817 -0.000003 -0.000002 -0.000001 5.945871 -6.875893 81.685340 8.620193 -6.745003 103.956572 2.650637 -5.464854 51.723810 -0.000002 0.000001 0.000002 5.945864 -6.875892 81.685361 8.620187 -6.744997 103.956558 2.650635 -5.464853 51.723817 -0.000001 -0.000003 -0.000001 -28.633038 24.016458 18.948850 38.488051 6.167981 10.942619 -11.874145 4.537086 -18.614424 -0.000040 0.000005 0.000000 -0.000000 0.000000 0.000000 -16.399079 -15.743325 -13.198063 38.187598 0.250122 -7.304821 -22.833447 -5.145325 15.351151 -0.000050 -0.000001 0.000001 0.000000 -0.000001 -0.000000 
0.190922 32.388241 -0.160625 1.560326 -26.715655 0.743773 4.006889 -1.470171 0.723059 1.495334 -0.584010 0.101200 0.000000 0.000000 0.000000 1.497946 -0.576583 0.104754 -2.617656 4.198871 2.840608 16.741157 24.081475 -12.364072 -0.000000 -0.000000 0.000000 -0.281257 3.073335 5.677545 0.000000 0.000000 0.000000 -51.670873 -1.468550 -53.178750 0.000079 -85.685338 0.000130 -13.994055 -20.655513 -8.594094 27.590964 19.106274 -21.055294 27.859539 42.153018 14.703679 8.091809 17.848647 9.739500 -0.000003 0.000005 -0.000002 6.438749 6.867041 -86.304624 7.312865 6.867711 -93.605291 2.157738 5.009659 -46.582962 0.000000 -0.000000 -0.000000 6.436806 6.866915 -86.288430 7.314808 6.867590 -93.621505 2.157741 5.009665 -46.582945 0.000001 -0.000000 0.000001 6.438745 6.867055 -86.304638 7.312867 6.867708 -93.605291 2.157727 5.009663 -46.582959 -0.000000 -0.000000 0.000001 -1.122343 -11.917103 10.268323 0.000000 0.000000 0.000000 -58.331974 66.132726 74.039886 0.000053 83.601037 -0.000036 -16.154559 14.982360 -32.734747 35.509597 -4.573188 10.809919 66.380826 -29.908015 29.548764 25.917433 -18.540866 10.281088 0.000004 0.000003 0.000001 5.945858 -6.875898 81.685340 8.620183 -6.745015 103.956565 2.650651 -5.464857 51.723820 -0.000003 -0.000002 0.000002 5.945868 -6.875887 81.685340 8.620192 -6.745003 103.956572 2.650636 -5.464855 51.723810 -0.000001 0.000004 -0.000001 5.945860 -6.875889 81.685361 8.620188 -6.744999 103.956558 2.650639 -5.464853 51.723817 -0.000001 -0.000005 0.000003 -28.663343 24.052948 18.960431 38.494366 6.126065 10.943987 -11.880941 4.534515 -18.598745 -0.000040 0.000003 0.000001 -0.000000 0.000000 0.000000 -16.440491 -15.830756 -13.204844 38.207091 0.313511 -7.374334 -22.848067 -5.150319 15.360950 -0.000048 0.000001 -0.000002 0.000000 -0.000001 0.000000 
0.189795 32.387054 -0.158048 1.576860 -26.709192 0.754421 3.995468 -1.478756 0.727761 1.490909 -0.587997 0.103529 0.000000 0.000000 0.000000 1.493540 -0.580610 0.107103 -2.609243 4.201773 2.835404 16.745513 24.081509 -12.358258 0.000002 -0.000000 -0.000000 -0.281202 3.086700 5.633003 0.000000 0.000000 0.000000 -51.676392 -1.528080 -53.150691 0.000177 -85.637492 0.000224 -14.020924 -20.738389 -8.589157 27.590968 19.106278 -21.055298 27.859541 42.153018 14.703683 8.091809 17.848640 9.739500 -0.000001 0.000003 -0.000002 6.438753 6.867042 -86.304624 7.312862 6.867714 -93.605291 2.157738 5.009659 -46.582966 0.000000 -0.000002 0.000000 6.436808 6.866920 -86.288423 7.314809 6.867591 -93.621512 2.157742 5.009662 -46.582945 0.000001 0.000000 -0.000001 6.438751 6.867052 -86.304645 7.312866 6.867706 -93.605291 2.157728 5.009665 -46.582956 -0.000001 -0.000001 -0.000000 -1.123201 -11.919750 10.264669 0.000000 0.000000 0.000000 -58.356221 66.157021 74.043123 0.000063 83.594132 -0.000069 -16.174414 14.890173 -32.735068 35.509600 -4.573183 10.809918 66.380826 -29.908015 29.548764 25.917436 -18.540864 10.281088 -0.000002 -0.000002 0.000003 5.945863 -6.875893 81.685340 8.620185 -6.745013 103.956565 2.650652 -5.464860 51.723814 0.000001 0.000001 0.000001 5.945874 -6.875890 81.685340 8.620191 -6.745005 103.956572 2.650632 -5.464855 51.723814 0.000002 0.000003 -0.000001 5.945868 -6.875890 81.685361 8.620186 -6.744995 103.956558 2.650637 -5.464854 51.723817 -0.000003 -0.000001 0.000002 -28.701131 24.099499 18.979520 38.505762 6.071967 10.946293 -11.890786 4.531680 -18.578839 -0.000043 0.000003 -0.000001 0.000000 -0.000001 0.000000 -16.480263 -15.921442 -13.209548 38.225516 0.374976 -7.445081 -22.862296 -5.155531 15.371513 -0.000051 -0.000001 -0.000001 0.000000 0.000001 0.000000 
0.188766 32.385880 -0.155631 1.591453 -26.705787 0.763545 3.984454 -1.488463 0.733183 1.486643 -0.592419 0.106145 0.000000 0.000000 0.000000 1.489280 -0.585011 0.109742 -2.597500 4.205263 2.830450 16.748251 24.084229 -12.349540 -0.000001 -0.000000 0.000000 -0.280616 3.096285 5.589742 0.000000 0.000000 0.000000 -51.690612 -1.583852 -53.118852 -0.000033 -85.585405 0.000016 -13.996601 -20.766261 -8.554909 27.590968 19.106274 -21.055294 27.859546 42.153021 14.703683 8.091813 17.848650 9.739500 -0.000003 0.000002 -0.000004 6.438751 6.867043 -86.304624 7.312865 6.867714 -93.605291 2.157738 5.009661 -46.582966 0.000000 -0.000001 0.000001 6.436805 6.866919 -86.288423 7.314809 6.867593 -93.621512 2.157742 5.009664 -46.582945 0.000000 0.000000 -0.000000 6.438747 6.867055 -86.304638 7.312865 6.867705 -93.605291 2.157730 5.009665 -46.582956 0.000001 -0.000001 0.000001 -1.123876 -11.917870 10.255499 0.000000 0.000000 0.000000 -58.375783 66.174698 74.048055 0.000053 83.587773 -0.000025 -16.198774 14.806662 -32.726244 35.509600 -4.573181 10.809917 66.380826 -29.908012 29.548775 25.917438 -18.540866 10.281085 0.000001 0.000004 -0.000000 5.945862 -6.875886 81.685340 8.620182 -6.745011 103.956565 2.650653 -5.464856 51.723817 0.000000 0.000004 -0.000003 5.945872 -6.875885 81.685340 8.620185 -6.745003 103.956572 2.650644 -5.464857 51.723814 0.000002 0.000001 0.000002 5.945865 -6.875893 81.685361 8.620186 -6.744995 103.956558 2.650637 -5.464856 51.723820 -0.000001 0.000000 0.000002 -28.742297 24.159308 19.006053 38.519200 6.006300 10.949183 -11.902843 4.530018 -18.555174 -0.000038 0.000003 0.000000 -0.000000 -0.000000 0.000000 -16.518970 -16.011055 -13.212914 38.243616 0.435298 -7.515335 -22.875079 -5.160573 15.381502 -0.000051 0.000003 -0.000001 0.000000 0.000004 0.000000 
